<?xml version="1.0" encoding="UTF-8"?>
<svg xmlns="http://www.w3.org/2000/svg" xmlns:xlink="http://www.w3.org/1999/xlink" width="28pt" height="28pt" viewBox="0 0 28 28" version="1.1">
<g id="surface2">
<path style="fill:none;stroke-width:1;stroke-linecap:round;stroke-linejoin:round;stroke:rgb(35.294118%,55.294118%,93.333333%);stroke-opacity:1;stroke-miterlimit:10;" d="M 9.310636 8.790787 C 9.310636 8.790787 9.118756 4.54875 7.518767 2.851345 " transform="matrix(1.323251,0,0,1.323251,0,0.10586)"/>
<path style="fill:none;stroke-width:1;stroke-linecap:round;stroke-linejoin:round;stroke:rgb(35.294118%,55.294118%,93.333333%);stroke-opacity:1;stroke-miterlimit:10;" d="M 11.518739 8.229905 C 11.518739 8.229905 12.938655 3.831412 14.969637 2.479392 " transform="matrix(1.323251,0,0,1.323251,0,0.10586)"/>
<path style=" stroke:none;fill-rule:nonzero;fill:rgb(35.294118%,55.294118%,93.333333%);fill-opacity:1;" d="M 22.613281 18.484375 C 22.613281 14.414062 19.058594 11.117188 14.675781 11.117188 C 10.289062 11.117188 6.734375 14.414062 6.734375 18.484375 C 6.734375 22.554688 10.289062 25.855469 14.675781 25.855469 C 19.058594 25.855469 22.613281 22.554688 22.613281 18.484375 Z M 22.613281 18.484375 "/>
<path style=" stroke:none;fill-rule:nonzero;fill:rgb(35.294118%,55.294118%,93.333333%);fill-opacity:1;" d="M 9.949219 23.910156 C 9.949219 23.910156 12.96875 31.230469 16.992188 25.179688 C 12.542969 25.738281 9.949219 23.910156 9.949219 23.910156 Z M 9.949219 23.910156 "/>
<path style=" stroke:none;fill-rule:nonzero;fill:rgb(0.392157%,18.039216%,34.117647%);fill-opacity:1;" d="M 10.796875 19.78125 C 10.796875 19.78125 12.492188 19.332031 11.527344 19.054688 C 11.140625 18.949219 10.71875 18.960938 10.335938 19.082031 C 9.0625 19.476562 8.90625 20.339844 10.320312 19.953125 C 10.320312 19.953125 10.347656 21.4375 11.128906 22.21875 C 11.128906 22.21875 9.648438 25.023438 12.664062 26.398438 C 15.679688 27.773438 16.5 24.492188 16.5 24.492188 C 16.5 24.492188 18.417969 24.625 19.796875 21.753906 C 18.140625 22.480469 14.238281 27.339844 10.796875 19.78125 Z M 10.796875 19.78125 "/>
<path style=" stroke:none;fill-rule:nonzero;fill:rgb(100%,92.156863%,61.960784%);fill-opacity:1;" d="M 12.886719 23.777344 C 12.703125 23.382812 12.226562 23.195312 11.84375 23.394531 C 11.710938 23.460938 11.578125 23.582031 11.472656 23.777344 C 11.050781 24.53125 11.816406 25.5 12.425781 25.855469 C 13.046875 26.226562 14.449219 26.332031 14.898438 25.605469 C 15.351562 24.878906 15.046875 24.058594 14.503906 23.804688 C 13.734375 23.394531 13.695312 24.042969 13.707031 24.28125 C 13.707031 24.359375 13.707031 24.453125 13.695312 24.53125 C 13.65625 24.824219 13.550781 25.300781 13.21875 24.558594 C 13.074219 24.203125 12.96875 23.964844 12.886719 23.777344 Z M 12.886719 23.777344 "/>
<path style=" stroke:none;fill-rule:nonzero;fill:rgb(88.627451%,95.294118%,98.823529%);fill-opacity:1;" d="M 16.785156 10.878906 C 15.226562 10.351562 13.316406 11.847656 12.511719 14.222656 C 11.707031 16.597656 12.320312 18.949219 13.878906 19.476562 C 15.4375 20.003906 17.347656 18.503906 18.152344 16.132812 C 18.957031 13.757812 18.34375 11.40625 16.785156 10.878906 Z M 16.785156 10.878906 "/>
<path style=" stroke:none;fill-rule:nonzero;fill:rgb(88.627451%,95.294118%,98.823529%);fill-opacity:1;" d="M 22.601562 14.960938 C 22.074219 12.753906 20.394531 11.269531 18.84375 11.636719 C 17.292969 12.007812 16.464844 14.09375 16.988281 16.296875 C 17.515625 18.5 19.199219 19.988281 20.746094 19.617188 C 22.296875 19.25 23.125 17.164062 22.601562 14.960938 Z M 22.601562 14.960938 "/>
<path style=" stroke:none;fill-rule:nonzero;fill:rgb(100%,100%,100%);fill-opacity:1;" d="M 17.890625 13.027344 C 17.457031 11.625 16.347656 10.722656 15.410156 11.011719 C 14.472656 11.300781 14.066406 12.671875 14.5 14.074219 C 14.933594 15.476562 16.042969 16.382812 16.980469 16.09375 C 17.914062 15.804688 18.320312 14.433594 17.890625 13.027344 Z M 17.890625 13.027344 "/>
<path style=" stroke:none;fill-rule:nonzero;fill:rgb(100%,100%,100%);fill-opacity:1;" d="M 22.011719 13.171875 C 21.40625 11.929688 20.207031 11.273438 19.332031 11.699219 C 18.457031 12.125 18.242188 13.476562 18.847656 14.71875 C 19.457031 15.960938 20.65625 16.617188 21.527344 16.191406 C 22.402344 15.765625 22.617188 14.414062 22.011719 13.171875 Z M 22.011719 13.171875 "/>
<path style=" stroke:none;fill-rule:nonzero;fill:rgb(0%,0%,0%);fill-opacity:1;" d="M 17.863281 13.601562 C 17.863281 14.046875 17.503906 14.410156 17.058594 14.410156 C 16.609375 14.410156 16.25 14.046875 16.25 13.601562 C 16.25 13.15625 16.609375 12.796875 17.058594 12.796875 C 17.503906 12.796875 17.863281 13.15625 17.863281 13.601562 Z M 17.863281 13.601562 "/>
<path style=" stroke:none;fill-rule:nonzero;fill:rgb(0%,0%,0%);fill-opacity:1;" d="M 21.832031 13.773438 C 21.832031 14.199219 21.488281 14.542969 21.066406 14.542969 C 20.640625 14.542969 20.296875 14.199219 20.296875 13.773438 C 20.296875 13.351562 20.640625 13.007812 21.066406 13.007812 C 21.488281 13.007812 21.832031 13.351562 21.832031 13.773438 Z M 21.832031 13.773438 "/>
<path style=" stroke:none;fill-rule:nonzero;fill:rgb(100%,87.058824%,63.921569%);fill-opacity:1;" d="M 10.429688 14.214844 C 9.871094 13.980469 9.046875 14.660156 8.59375 15.738281 C 8.136719 16.816406 8.222656 17.878906 8.78125 18.117188 C 9.339844 18.351562 10.160156 17.667969 10.617188 16.59375 C 11.070312 15.515625 10.988281 14.449219 10.429688 14.214844 Z M 10.429688 14.214844 "/>
<path style=" stroke:none;fill-rule:nonzero;fill:rgb(35.294118%,55.294118%,93.333333%);fill-opacity:1;" d="M 10.292969 2.011719 C 10.292969 2.886719 9.582031 3.597656 8.707031 3.597656 C 7.828125 3.597656 7.117188 2.886719 7.117188 2.011719 C 7.117188 1.132812 7.828125 0.421875 8.707031 0.421875 C 9.582031 0.421875 10.292969 1.132812 10.292969 2.011719 Z M 10.292969 2.011719 "/>
<path style=" stroke:none;fill-rule:nonzero;fill:rgb(35.294118%,55.294118%,93.333333%);fill-opacity:1;" d="M 22.507812 1.851562 C 22.507812 2.582031 21.917969 3.175781 21.183594 3.175781 C 20.453125 3.175781 19.863281 2.582031 19.863281 1.851562 C 19.863281 1.121094 20.453125 0.53125 21.183594 0.53125 C 21.917969 0.53125 22.507812 1.121094 22.507812 1.851562 Z M 22.507812 1.851562 "/>
</g>
</svg>
