<?xml version="1.0" encoding="UTF-8"?>
<svg xmlns="http://www.w3.org/2000/svg" xmlns:xlink="http://www.w3.org/1999/xlink" width="28pt" height="28pt" viewBox="0 0 28 28" version="1.1">
<g id="surface2">
<path style=" stroke:none;fill-rule:nonzero;fill:rgb(35.294118%,55.294118%,93.333333%);fill-opacity:1;" d="M 25.167969 16.328125 C 25.167969 16.34375 21.570312 17.058594 26.199219 20.21875 C 26.226562 20.234375 26.199219 20.273438 26.175781 20.257812 C 19.625 18.117188 22.917969 22.707031 23.660156 23.6875 C 23.671875 23.710938 23.648438 23.738281 23.621094 23.726562 C 22.667969 22.972656 18.140625 19.625 20.273438 26.199219 C 20.285156 26.226562 20.246094 26.238281 20.234375 26.226562 C 16.261719 20.601562 16.261719 26.320312 16.300781 27.496094 C 16.300781 27.523438 16.261719 27.535156 16.25 27.511719 C 15.90625 26.386719 14.105469 21.066406 11.988281 27.550781 C 11.976562 27.578125 11.9375 27.578125 11.9375 27.535156 C 11.960938 20.601562 8.695312 25.261719 8.03125 26.265625 C 8.019531 26.292969 7.980469 26.265625 7.992188 26.238281 C 8.375 25.101562 10.003906 19.703125 4.433594 23.777344 C 4.40625 23.792969 4.378906 23.765625 4.394531 23.738281 C 8.695312 18.300781 3.136719 19.996094 2.039062 20.363281 C 2.011719 20.378906 2 20.339844 2.011719 20.324219 C 2.964844 19.675781 7.554688 16.316406 0.636719 16.34375 C 0.609375 16.34375 0.59375 16.300781 0.621094 16.289062 C 1.679688 15.957031 7.25 14.066406 0.636719 12.027344 C 0.609375 12.015625 0.609375 11.976562 0.636719 11.976562 C 1.8125 12 7.59375 11.921875 1.984375 7.859375 C 1.957031 7.847656 1.984375 7.808594 2.011719 7.820312 C 8.507812 10.003906 5.28125 5.476562 4.472656 4.433594 C 4.445312 4.40625 4.472656 4.378906 4.5 4.394531 C 5.519531 5.253906 10.003906 8.761719 7.898438 1.867188 C 7.886719 1.839844 7.925781 1.8125 7.941406 1.839844 C 11.910156 7.648438 11.882812 1.761719 11.84375 0.515625 C 11.84375 0.488281 11.882812 0.476562 11.894531 0.503906 C 12.238281 1.695312 14.039062 7.265625 16.15625 0.449219 C 16.171875 0.421875 16.210938 0.421875 16.210938 0.464844 C 16.183594 7.53125 19.492188 2.792969 20.140625 1.785156 C 20.152344 1.761719 20.191406 1.785156 20.179688 1.8125 C 19.796875 2.964844 18.140625 8.589844 23.582031 4.273438 C 23.605469 4.261719 23.632812 4.289062 23.621094 4.3125 C 19.648438 10.070312 24.941406 8.230469 26.066406 7.792969 C 26.09375 7.78125 26.121094 7.820312 26.09375 7.832031 C 25.140625 8.507812 20.867188 11.816406 26.96875 11.828125 C 26.980469 11.828125 26.996094 11.84375 26.996094 11.871094 C 26.996094 11.871094 21.054688 14.226562 27.363281 15.667969 C 25.539062 16.328125 25.167969 16.328125 25.167969 16.328125 Z M 25.167969 16.328125 "/>
<path style=" stroke:none;fill-rule:nonzero;fill:rgb(100%,100%,100%);fill-opacity:1;" d="M 5.492188 11.289062 C 5.796875 11.289062 7.105469 11.289062 7.105469 11.289062 L 6.296875 15.046875 C 6.296875 15.046875 6.074219 15.867188 6.75 15.8125 C 7.421875 15.761719 7.675781 13.828125 7.675781 13.828125 L 8.203125 11.289062 L 9.726562 11.289062 L 8.933594 15.242188 C 8.933594 15.242188 8.8125 16.050781 9.726562 15.71875 C 10.507812 15.097656 11.207031 13.351562 11.15625 12.226562 L 11.765625 11.484375 C 11.765625 11.484375 12.132812 15.230469 9.820312 16.59375 C 7.714844 17.453125 7.382812 15.90625 7.382812 15.90625 C 7.382812 15.90625 6.246094 17.730469 4.882812 16.34375 C 4.273438 15.203125 5.359375 12.835938 5.492188 11.289062 Z M 5.492188 11.289062 "/>
<path style=" stroke:none;fill-rule:nonzero;fill:rgb(100%,100%,100%);fill-opacity:1;" d="M 11.777344 11.605469 C 11.777344 11.261719 11.5 10.984375 11.15625 10.984375 C 10.8125 10.984375 10.53125 11.261719 10.53125 11.605469 C 10.53125 11.949219 10.8125 12.226562 11.15625 12.226562 C 11.5 12.226562 11.777344 11.949219 11.777344 11.605469 Z M 11.777344 11.605469 "/>
<path style=" stroke:none;fill-rule:nonzero;fill:rgb(100%,100%,100%);fill-opacity:1;" d="M 16.234375 13.246094 C 16.234375 12.953125 16 12.714844 15.707031 12.714844 C 15.414062 12.714844 15.175781 12.953125 15.175781 13.246094 C 15.175781 13.539062 15.414062 13.773438 15.707031 13.773438 C 16 13.773438 16.234375 13.539062 16.234375 13.246094 Z M 16.234375 13.246094 "/>
<path style=" stroke:none;fill-rule:nonzero;fill:rgb(100%,100%,100%);fill-opacity:1;" d="M 16.144531 13.125 C 16.144531 13.125 16.832031 13.296875 17.46875 12.886719 C 18.101562 12.476562 17.386719 13.429688 17.386719 13.429688 C 17.386719 13.429688 16.433594 13.839844 15.878906 13.644531 C 15.324219 13.445312 16.144531 13.125 16.144531 13.125 Z M 16.144531 13.125 "/>
<path style=" stroke:none;fill-rule:nonzero;fill:rgb(100%,100%,100%);fill-opacity:1;" d="M 17.691406 11.433594 C 17.996094 11.433594 19.304688 11.433594 19.304688 11.433594 L 18.5 15.191406 C 18.5 15.191406 18.273438 16.011719 18.949219 15.957031 C 19.625 15.90625 19.875 13.972656 19.875 13.972656 L 20.40625 11.433594 L 21.925781 11.433594 L 21.132812 15.390625 C 21.132812 15.390625 21.011719 16.195312 21.925781 15.867188 C 22.707031 15.242188 23.410156 13.496094 23.355469 12.371094 L 23.9375 11.617188 C 23.9375 11.617188 24.308594 15.363281 21.992188 16.726562 C 19.886719 17.585938 19.558594 16.039062 19.558594 16.039062 C 19.558594 16.039062 18.417969 17.863281 17.058594 16.472656 C 16.472656 15.351562 17.558594 12.996094 17.691406 11.433594 Z M 17.691406 11.433594 "/>
<path style=" stroke:none;fill-rule:nonzero;fill:rgb(100%,100%,100%);fill-opacity:1;" d="M 23.964844 11.765625 C 23.964844 11.421875 23.6875 11.140625 23.34375 11.140625 C 23 11.140625 22.71875 11.421875 22.71875 11.765625 C 22.71875 12.105469 23 12.386719 23.34375 12.386719 C 23.6875 12.386719 23.964844 12.105469 23.964844 11.765625 Z M 23.964844 11.765625 "/>
<path style=" stroke:none;fill-rule:nonzero;fill:rgb(100%,100%,100%);fill-opacity:1;" d="M 14.464844 11.378906 C 14.464844 11.378906 16.554688 11.117188 16.328125 13.101562 C 16.25 15.097656 16 16.671875 14.078125 16.992188 C 12.160156 17.292969 11.855469 15.800781 12.09375 14.382812 C 12.332031 12.953125 13.390625 11.589844 14.464844 11.378906 Z M 15.546875 12.648438 C 15.546875 12.648438 15.574219 11.65625 14.765625 12.121094 C 14.027344 12.542969 13.601562 14.53125 13.617188 15.363281 C 13.617188 15.535156 13.667969 15.695312 13.773438 15.824219 C 14.160156 16.316406 14.726562 15.679688 14.726562 15.679688 C 14.726562 15.679688 15.019531 15.507812 15.375 14.304688 C 15.523438 13.839844 15.589844 13.363281 15.5625 12.886719 C 15.5625 12.730469 15.546875 12.648438 15.546875 12.648438 Z M 15.546875 12.648438 "/>
</g>
</svg>
