<?xml version="1.0" encoding="UTF-8"?>
<svg xmlns="http://www.w3.org/2000/svg" xmlns:xlink="http://www.w3.org/1999/xlink" width="28pt" height="28pt" viewBox="0 0 28 28" version="1.1">
<g id="surface2">
<path style=" stroke:none;fill-rule:nonzero;fill:rgb(51.764706%,58.039216%,65.490196%);fill-opacity:1;" d="M 7.953125 0.6875 L 13.761719 0.6875 C 13.761719 0.6875 8.351562 8.070312 12.675781 15.457031 C 16.976562 21.316406 23.792969 17.003906 23.792969 17.003906 L 22.628906 13.3125 C 22.628906 13.3125 19.054688 17.121094 13.140625 15.613281 C 12.675781 15.496094 12.226562 15.324219 11.816406 15.085938 C 5.996094 11.828125 6.445312 4.273438 7.953125 0.6875 Z M 7.953125 0.6875 "/>
<path style=" stroke:none;fill-rule:nonzero;fill:rgb(51.764706%,58.039216%,65.490196%);fill-opacity:1;" d="M 6.445312 15.574219 L 7.410156 18.527344 C 7.410156 18.527344 9.882812 16.84375 14.226562 18.351562 C 18.566406 19.863281 19.796875 25.128906 20.007812 27.296875 L 15.535156 27.296875 C 15.535156 27.296875 16.882812 22.03125 14.027344 18.089844 C 13.972656 18.007812 13.90625 17.929688 13.839844 17.863281 C 12.292969 16.234375 10.71875 14.964844 6.445312 15.574219 Z M 6.445312 15.574219 "/>
<path style=" stroke:none;fill-rule:nonzero;fill:rgb(51.764706%,58.039216%,65.490196%);fill-opacity:1;" d="M 19.824219 6.140625 C 19.824219 6.9375 19.175781 7.582031 18.378906 7.582031 C 17.582031 7.582031 16.9375 6.9375 16.9375 6.140625 C 16.9375 5.34375 17.582031 4.699219 18.378906 4.699219 C 19.175781 4.699219 19.824219 5.34375 19.824219 6.140625 Z M 19.824219 6.140625 "/>
</g>
</svg>
