<svg xmlns="http://www.w3.org/2000/svg" xmlns:xlink="http://www.w3.org/1999/xlink" width="62" height="62" viewBox="0 0 62 62">
  <defs>
    <clipPath id="clip-aisle2">
      <rect width="62" height="62"/>
    </clipPath>
  </defs>
  <g id="aisle2" clip-path="url(#clip-aisle2)">
    <rect width="62" height="62" fill="#fff"/>
    <g id="Path_8" data-name="Path 8" transform="translate(-2.063 1)" fill="#bdc2cc">
      <path d="M 1.499995708465576 56.72624206542969 L 1.499995708465576 26.77425384521484 L 28.7577953338623 3.273763179779053 L 28.7577953338623 33.22574996948242 L 1.499995708465576 56.72624206542969 Z" stroke="none"/>
      <path d="M 27.2577953338623 6.547512054443359 L 2.999996185302734 27.46152877807617 L 2.999996185302734 53.45249176025391 L 27.2577953338623 32.53847503662109 L 27.2577953338623 6.547512054443359 M 30.2577953338623 3.814697265625e-06 L 30.2577953338623 33.91304779052734 L -3.814697265625e-06 60 L -3.814697265625e-06 26.08695602416992 L 30.2577953338623 3.814697265625e-06 Z" stroke="none" fill="#fff"/>
    </g>
    <g id="Path_9" data-name="Path 9" transform="translate(16.814 1)" fill="#126630">
      <path d="M 1.499995708465576 56.72624206542969 L 1.499995708465576 26.77425384521484 L 28.7577953338623 3.273763179779053 L 28.7577953338623 33.22574996948242 L 1.499995708465576 56.72624206542969 Z" stroke="none"/>
      <path d="M 27.2577953338623 6.547512054443359 L 2.999996185302734 27.46152877807617 L 2.999996185302734 53.45249176025391 L 27.2577953338623 32.53847503662109 L 27.2577953338623 6.547512054443359 M 30.2577953338623 3.814697265625e-06 L 30.2577953338623 33.91304779052734 L -3.814697265625e-06 60 L -3.814697265625e-06 26.08695602416992 L 30.2577953338623 3.814697265625e-06 Z" stroke="none" fill="#fff"/>
    </g>
    <g id="Path_10" data-name="Path 10" transform="translate(33.806 1)" fill="#bdc2cc">
      <path d="M 1.499995708465576 56.72624206542969 L 1.499995708465576 26.77425384521484 L 28.7577953338623 3.273763179779053 L 28.7577953338623 33.22574996948242 L 1.499995708465576 56.72624206542969 Z" stroke="none"/>
      <path d="M 27.2577953338623 6.547512054443359 L 2.999996185302734 27.46152877807617 L 2.999996185302734 53.45249176025391 L 27.2577953338623 32.53847503662109 L 27.2577953338623 6.547512054443359 M 30.2577953338623 3.814697265625e-06 L 30.2577953338623 33.91304779052734 L -3.814697265625e-06 60 L -3.814697265625e-06 26.08695602416992 L 30.2577953338623 3.814697265625e-06 Z" stroke="none" fill="#fff"/>
    </g>
  </g>
</svg>
