<svg xmlns="http://www.w3.org/2000/svg" xmlns:xlink="http://www.w3.org/1999/xlink" width="62" height="62" viewBox="0 0 62 62">
  <defs>
    <clipPath id="clip-section1">
      <rect width="62" height="62"/>
    </clipPath>
  </defs>
  <g id="section1" clip-path="url(#clip-section1)">
    <rect id="Rectangle_14" data-name="Rectangle 14" width="20" height="23" transform="translate(12 34)" fill="#708090"/>
    <g id="Subtraction_1" data-name="Subtraction 1" transform="translate(5280 3179)" fill="#bdc2cc" stroke-linejoin="round">
      <path d="M -5271.9990234375 -3122.9990234375 L -5279.00048828125 -3123 L -5279.00048828125 -3152.454345703125 L -5248.94921875 -3171.8095703125 L -5218.9990234375 -3152.455322265625 L -5218.9990234375 -3123.0009765625 L -5225.9990234375 -3123 L -5225.9990234375 -3148.2001953125 L -5225.9990234375 -3149.2001953125 L -5226.9990234375 -3149.2001953125 L -5270.9990234375 -3149.2001953125 L -5271.9990234375 -3149.2001953125 L -5271.9990234375 -3148.2001953125 L -5271.9990234375 -3122.9990234375 Z" stroke="none"/>
      <path d="M -5272.9990234375 -3123.999267578125 L -5272.9990234375 -3148.2001953125 C -5272.9990234375 -3149.3046875 -5272.103515625 -3150.2001953125 -5270.9990234375 -3150.2001953125 L -5226.9990234375 -3150.2001953125 C -5225.89453125 -3150.2001953125 -5224.9990234375 -3149.3046875 -5224.9990234375 -3148.2001953125 L -5224.9990234375 -3124.000244140625 L -5219.9990234375 -3124.000732421875 L -5219.9990234375 -3151.910888671875 L -5248.9501953125 -3170.619384765625 L -5278.00048828125 -3151.908935546875 L -5278.00048828125 -3123.999755859375 L -5272.9990234375 -3123.999267578125 M -5270.9990234375 -3121.9990234375 L -5280.00048828125 -3122 L -5280.00048828125 -3152.999755859375 L -5248.9482421875 -3172.99951171875 L -5217.9990234375 -3152.999755859375 L -5217.9990234375 -3122.0009765625 L -5226.9990234375 -3122 L -5226.9990234375 -3148.2001953125 L -5270.9990234375 -3148.2001953125 L -5270.9990234375 -3121.9990234375 Z" stroke="none" fill="#bdc2cc"/>
    </g>
  </g>
</svg>
